<svg width="162" height="72" viewBox="0 0 162 72" fill="none" xmlns="http://www.w3.org/2000/svg">
<g filter="url(#filter0_d_32_50)">
<path d="M8.856 52.432C7.416 52.432 6.344 52.016 5.64 51.184C4.936 50.32 4.712 49.104 4.968 47.536L8.904 22.384C9.128 20.976 9.656 19.92 10.488 19.216C11.32 18.512 12.44 18.16 13.848 18.16H29.496C30.68 18.16 31.576 18.4 32.184 18.88C32.792 19.36 33.096 20.048 33.096 20.944C33.096 22.128 32.744 23.104 32.04 23.872C31.336 24.608 30.344 24.976 29.064 24.976H17.352L16.248 31.792H26.28C27.464 31.792 28.36 32.032 28.968 32.512C29.576 32.992 29.88 33.664 29.88 34.528C29.88 35.744 29.528 36.72 28.824 37.456C28.12 38.192 27.128 38.56 25.848 38.56H15.192L13.656 48.208C13.208 51.024 11.608 52.432 8.856 52.432ZM49.4299 52.528C46.1979 52.528 43.3819 51.936 40.9819 50.752C38.5819 49.536 36.7099 47.808 35.3659 45.568C34.0539 43.296 33.3979 40.56 33.3979 37.36C33.3979 34.448 33.8299 31.792 34.6939 29.392C35.5899 26.96 36.8379 24.864 38.4379 23.104C40.0699 21.344 42.0059 20 44.2459 19.072C46.5179 18.112 49.0299 17.632 51.7819 17.632C55.0459 17.632 57.8779 18.24 60.2779 19.456C62.6779 20.64 64.5339 22.368 65.8459 24.64C67.1579 26.88 67.8139 29.584 67.8139 32.752C67.8139 35.696 67.3819 38.384 66.5179 40.816C65.6539 43.216 64.4059 45.296 62.7739 47.056C61.1419 48.816 59.1899 50.176 56.9179 51.136C54.6779 52.064 52.1819 52.528 49.4299 52.528ZM49.5259 45.136C51.4779 45.136 53.1259 44.624 54.4699 43.6C55.8139 42.576 56.8539 41.152 57.5899 39.328C58.3259 37.472 58.6939 35.344 58.6939 32.944C58.6939 30.256 58.0539 28.272 56.7739 26.992C55.5259 25.68 53.8139 25.024 51.6379 25.024C49.7499 25.024 48.1179 25.536 46.7419 26.56C45.3979 27.584 44.3579 29.008 43.6219 30.832C42.9179 32.656 42.5659 34.784 42.5659 37.216C42.5659 39.872 43.1899 41.856 44.4379 43.168C45.6859 44.48 47.3819 45.136 49.5259 45.136ZM88.5806 52.528C85.4446 52.528 82.6446 51.952 80.1806 50.8C77.7166 49.616 75.7646 47.872 74.3246 45.568C72.8846 43.232 72.1646 40.368 72.1646 36.976C72.1646 34.256 72.5806 31.728 73.4126 29.392C74.2446 27.056 75.4606 25.008 77.0606 23.248C78.6926 21.488 80.6926 20.112 83.0606 19.12C85.4606 18.128 88.2126 17.632 91.3166 17.632C92.7566 17.632 94.2446 17.808 95.7806 18.16C97.3486 18.48 98.8046 18.992 100.149 19.696C101.013 20.144 101.589 20.736 101.877 21.472C102.165 22.176 102.229 22.912 102.069 23.68C101.941 24.448 101.637 25.152 101.157 25.792C100.709 26.4 100.133 26.832 99.4286 27.088C98.7566 27.312 98.0206 27.248 97.2206 26.896C96.0366 26.32 94.9486 25.92 93.9566 25.696C92.9966 25.44 92.0526 25.312 91.1246 25.312C88.9806 25.312 87.1886 25.824 85.7486 26.848C84.3406 27.84 83.2686 29.2 82.5326 30.928C81.8286 32.624 81.4766 34.528 81.4766 36.64C81.4766 38.496 81.7646 40.048 82.3406 41.296C82.9166 42.512 83.7966 43.408 84.9806 43.984C86.1966 44.56 87.7486 44.848 89.6366 44.848C90.4686 44.848 91.3166 44.752 92.1806 44.56C93.0766 44.368 93.9726 44.064 94.8686 43.648C95.7646 43.264 96.5646 43.184 97.2686 43.408C98.0046 43.632 98.5806 44.048 98.9966 44.656C99.4126 45.264 99.6526 45.952 99.7166 46.72C99.7806 47.456 99.6366 48.176 99.2846 48.88C98.9326 49.584 98.3086 50.144 97.4126 50.56C96.1326 51.232 94.6766 51.728 93.0446 52.048C91.4126 52.368 89.9246 52.528 88.5806 52.528ZM120.071 52.528C116.839 52.528 114.023 51.936 111.623 50.752C109.223 49.536 107.351 47.808 106.007 45.568C104.695 43.296 104.039 40.56 104.039 37.36C104.039 34.448 104.471 31.792 105.335 29.392C106.231 26.96 107.479 24.864 109.079 23.104C110.711 21.344 112.647 20 114.887 19.072C117.159 18.112 119.671 17.632 122.423 17.632C125.687 17.632 128.519 18.24 130.919 19.456C133.319 20.64 135.175 22.368 136.487 24.64C137.799 26.88 138.455 29.584 138.455 32.752C138.455 35.696 138.023 38.384 137.159 40.816C136.295 43.216 135.047 45.296 133.415 47.056C131.783 48.816 129.831 50.176 127.559 51.136C125.319 52.064 122.823 52.528 120.071 52.528ZM120.167 45.136C122.119 45.136 123.767 44.624 125.111 43.6C126.455 42.576 127.495 41.152 128.231 39.328C128.967 37.472 129.335 35.344 129.335 32.944C129.335 30.256 128.695 28.272 127.415 26.992C126.167 25.68 124.455 25.024 122.279 25.024C120.391 25.024 118.759 25.536 117.383 26.56C116.039 27.584 114.999 29.008 114.263 30.832C113.559 32.656 113.207 34.784 113.207 37.216C113.207 39.872 113.831 41.856 115.079 43.168C116.327 44.48 118.023 45.136 120.167 45.136Z" fill="white"/>
</g>
<g filter="url(#filter1_i_32_50)">
<path d="M45 39.5H41.5V32.5H45V39.5ZM160.975 33.5251C162.342 34.892 162.342 37.108 160.975 38.4749L138.701 60.7487C137.334 62.1156 135.118 62.1156 133.751 60.7487C132.384 59.3819 132.384 57.1658 133.751 55.799L153.55 36L133.751 16.201C132.384 14.8342 132.384 12.6181 133.751 11.2513C135.118 9.88443 137.334 9.88443 138.701 11.2513L160.975 33.5251ZM45 32.5L101.75 32.5V39.5L45 39.5V32.5ZM101.75 32.5L158.5 32.5V39.5L101.75 39.5V32.5Z" fill="#F8B14E"/>
</g>
<path d="M49.4299 52.528C46.1979 52.528 43.3819 51.936 40.9819 50.752C38.5819 49.536 36.7099 47.808 35.3659 45.568C34.0539 43.296 33.3979 40.56 33.3979 37.36C33.3979 34.448 33.8299 31.792 34.6939 29.392C35.5899 26.96 36.8379 24.864 38.4379 23.104C40.0699 21.344 42.0059 20 44.2459 19.072C46.5179 18.112 49.0299 17.632 51.7819 17.632C55.0459 17.632 57.8779 18.24 60.2779 19.456C62.6779 20.64 64.5339 22.368 65.8459 24.64C67.1579 26.88 67.8139 29.584 67.8139 32.752C67.8139 35.696 67.3819 38.384 66.5179 40.816C65.6539 43.216 64.4059 45.296 62.7739 47.056C61.1419 48.816 59.1899 50.176 56.9179 51.136C54.6779 52.064 52.1819 52.528 49.4299 52.528ZM49.5259 45.136C51.4779 45.136 53.1259 44.624 54.4699 43.6C55.8139 42.576 56.8539 41.152 57.5899 39.328C58.3259 37.472 58.6939 35.344 58.6939 32.944C58.6939 30.256 58.0539 28.272 56.7739 26.992C55.5259 25.68 53.8139 25.024 51.6379 25.024C49.7499 25.024 48.1179 25.536 46.7419 26.56C45.3979 27.584 44.3579 29.008 43.6219 30.832C42.9179 32.656 42.5659 34.784 42.5659 37.216C42.5659 39.872 43.1899 41.856 44.4379 43.168C45.6859 44.48 47.3819 45.136 49.5259 45.136Z" fill="url(#paint0_linear_32_50)"/>
<path d="M88.5806 52.528C85.4446 52.528 82.6446 51.952 80.1806 50.8C77.7166 49.616 75.7646 47.872 74.3246 45.568C72.8846 43.232 72.1646 40.368 72.1646 36.976C72.1646 34.256 72.5806 31.728 73.4126 29.392C74.2446 27.056 75.4606 25.008 77.0606 23.248C78.6926 21.488 80.6926 20.112 83.0606 19.12C85.4606 18.128 88.2126 17.632 91.3166 17.632C92.7566 17.632 94.2446 17.808 95.7806 18.16C97.3486 18.48 98.8046 18.992 100.149 19.696C101.013 20.144 101.589 20.736 101.877 21.472C102.165 22.176 102.229 22.912 102.069 23.68C101.941 24.448 101.637 25.152 101.157 25.792C100.709 26.4 100.133 26.832 99.4286 27.088C98.7566 27.312 98.0206 27.248 97.2206 26.896C96.0366 26.32 94.9486 25.92 93.9566 25.696C92.9966 25.44 92.0526 25.312 91.1246 25.312C88.9806 25.312 87.1886 25.824 85.7486 26.848C84.3406 27.84 83.2686 29.2 82.5326 30.928C81.8286 32.624 81.4766 34.528 81.4766 36.64C81.4766 38.496 81.7646 40.048 82.3406 41.296C82.9166 42.512 83.7966 43.408 84.9806 43.984C86.1966 44.56 87.7486 44.848 89.6366 44.848C90.4686 44.848 91.3166 44.752 92.1806 44.56C93.0766 44.368 93.9726 44.064 94.8686 43.648C95.7646 43.264 96.5646 43.184 97.2686 43.408C98.0046 43.632 98.5806 44.048 98.9966 44.656C99.4126 45.264 99.6526 45.952 99.7166 46.72C99.7806 47.456 99.6366 48.176 99.2846 48.88C98.9326 49.584 98.3086 50.144 97.4126 50.56C96.1326 51.232 94.6766 51.728 93.0446 52.048C91.4126 52.368 89.9246 52.528 88.5806 52.528Z" fill="white"/>
<defs>
<filter id="filter0_d_32_50" x="0.583984" y="17.632" width="141.87" height="42.896" filterUnits="userSpaceOnUse" color-interpolation-filters="sRGB">
<feFlood flood-opacity="0" result="BackgroundImageFix"/>
<feColorMatrix in="SourceAlpha" type="matrix" values="0 0 0 0 0 0 0 0 0 0 0 0 0 0 0 0 0 0 127 0" result="hardAlpha"/>
<feOffset dy="4"/>
<feGaussianBlur stdDeviation="2"/>
<feComposite in2="hardAlpha" operator="out"/>
<feColorMatrix type="matrix" values="0 0 0 0 0 0 0 0 0 0 0 0 0 0 0 0 0 0 0.25 0"/>
<feBlend mode="normal" in2="BackgroundImageFix" result="effect1_dropShadow_32_50"/>
<feBlend mode="normal" in="SourceGraphic" in2="effect1_dropShadow_32_50" result="shape"/>
</filter>
<filter id="filter1_i_32_50" x="41.5" y="10.2261" width="120.5" height="55.5477" filterUnits="userSpaceOnUse" color-interpolation-filters="sRGB">
<feFlood flood-opacity="0" result="BackgroundImageFix"/>
<feBlend mode="normal" in="SourceGraphic" in2="BackgroundImageFix" result="shape"/>
<feColorMatrix in="SourceAlpha" type="matrix" values="0 0 0 0 0 0 0 0 0 0 0 0 0 0 0 0 0 0 127 0" result="hardAlpha"/>
<feOffset dy="4"/>
<feGaussianBlur stdDeviation="2"/>
<feComposite in2="hardAlpha" operator="arithmetic" k2="-1" k3="1"/>
<feColorMatrix type="matrix" values="0 0 0 0 0 0 0 0 0 0 0 0 0 0 0 0 0 0 0.25 0"/>
<feBlend mode="normal" in2="shape" result="effect1_innerShadow_32_50"/>
</filter>
<linearGradient id="paint0_linear_32_50" x1="57.5" y1="34.5" x2="45" y2="36" gradientUnits="userSpaceOnUse">
<stop stop-color="white" stop-opacity="0"/>
<stop offset="0.355" stop-color="white" stop-opacity="0.51"/>
<stop offset="1" stop-color="white"/>
</linearGradient>
</defs>
</svg>
